<?xml version="1.0" standalone="no"?>
<!DOCTYPE svg PUBLIC "-//W3C//DTD SVG 20010904//EN"
 "http://www.w3.org/TR/2001/REC-SVG-20010904/DTD/svg10.dtd">
<svg version="1.0" xmlns="http://www.w3.org/2000/svg"
 width="1600.000000pt" height="1600.000000pt" viewBox="0 0 1600.000000 1600.000000"
 preserveAspectRatio="xMidYMid meet">

<g transform="translate(0.000000,1600.000000) scale(0.100000,-0.100000)"
fill="#000000" stroke="none">
<path d="M7407 15660 c-128 -22 -280 -88 -406 -177 -103 -73 -306 -283 -424
-439 -126 -167 -184 -222 -292 -273 -173 -83 -291 -99 -810 -111 -225 -5 -464
-14 -530 -20 -162 -15 -347 -53 -464 -96 -96 -36 -221 -101 -221 -116 0 -15
160 -259 247 -376 540 -730 1161 -1090 1610 -932 86 30 188 100 308 211 419
389 677 516 988 488 276 -26 512 -178 805 -519 127 -147 173 -177 287 -187
120 -10 281 43 427 141 29 19 139 108 243 197 105 89 341 284 525 433 396 320
587 482 769 654 138 131 279 290 319 361 l23 40 -52 26 c-102 52 -188 68 -369
69 -218 0 -315 -15 -835 -134 -242 -56 -331 -70 -450 -70 -107 0 -174 14 -242
48 -23 12 -118 95 -210 184 -381 366 -653 539 -933 592 -87 17 -232 19 -313 6z"/>
<path d="M10860 14024 c-167 -155 -362 -319 -745 -629 -176 -142 -417 -340
-535 -440 -239 -202 -325 -264 -465 -335 -302 -154 -612 -189 -889 -100 -169
54 -306 149 -441 305 -38 44 -119 130 -180 190 -192 193 -264 208 -445 91 -76
-49 -216 -165 -344 -283 -202 -187 -431 -308 -681 -359 -134 -27 -365 -25
-511 4 -261 52 -522 170 -779 352 -44 31 -86 60 -94 65 -8 5 23 -34 68 -86
203 -229 397 -525 510 -776 128 -285 180 -470 237 -848 3 -26 18 -38 121 -97
512 -292 1033 -460 1623 -524 188 -20 607 -15 790 10 493 68 957 220 1395 458
61 33 188 111 283 174 l172 113 0 198 c0 207 16 379 51 568 89 476 305 975
596 1380 144 201 292 450 358 605 19 44 33 80 32 80 -1 0 -58 -52 -127 -116z"/>
<path d="M11955 12153 c-383 -23 -778 -139 -1216 -359 l-149 -74 0 -155 c0
-93 4 -155 10 -155 14 0 374 -167 558 -259 564 -283 1156 -683 1661 -1124
l125 -109 46 4 c63 6 149 47 195 93 90 91 118 241 64 355 -69 148 -417 439
-745 623 -310 175 -769 317 -1116 344 -43 3 -78 9 -78 13 0 18 311 109 465
136 436 76 865 1 1320 -229 95 -48 104 -51 180 -51 94 -1 165 27 228 88 64 63
91 128 91 221 1 151 -60 236 -240 328 -456 233 -931 338 -1399 310z"/>
<path d="M10230 10729 c-420 -290 -845 -497 -1302 -634 -439 -131 -811 -186
-1253 -186 -585 0 -1107 102 -1685 328 -200 78 -537 243 -720 352 -74 44 -141
81 -148 81 -24 0 -393 -186 -537 -270 -1668 -981 -3032 -2966 -3264 -4751 -42
-322 -50 -552 -31 -919 80 -1537 633 -2492 1775 -3062 675 -338 1636 -552
2875 -642 659 -48 1057 -60 2060 -60 1003 0 1401 12 2060 60 2539 185 3845
863 4380 2274 180 477 280 1104 280 1772 0 1003 -325 2027 -945 2973 -456 697
-1080 1353 -1785 1877 -379 281 -827 554 -1200 731 -136 64 -398 177 -408 176
-4 0 -72 -45 -152 -100z m-2128 -2106 l3 -338 60 -13 c195 -42 434 -148 575
-255 223 -169 400 -416 517 -721 35 -94 113 -349 113 -373 0 -11 -52 -13 -285
-13 l-284 0 -11 43 c-105 413 -335 663 -699 758 -109 29 -379 37 -519 15 -393
-60 -632 -272 -703 -624 -53 -264 5 -505 159 -661 171 -173 360 -254 987 -421
464 -124 646 -185 843 -284 288 -145 509 -362 608 -599 71 -168 98 -320 98
-552 -1 -254 -50 -468 -155 -674 -65 -127 -131 -214 -253 -336 -227 -226 -536
-380 -902 -450 -43 -8 -96 -15 -116 -15 l-38 0 0 -275 0 -275 -290 0 -290 0 0
273 0 272 -103 24 c-155 36 -298 86 -442 157 -503 247 -796 688 -880 1323 -8
63 -15 118 -15 123 0 5 129 7 288 6 l287 -3 7 -81 c28 -335 204 -643 469 -819
202 -135 444 -193 759 -182 259 9 435 48 605 135 116 59 242 181 297 287 124
239 136 610 26 830 -48 95 -149 205 -256 279 -154 105 -360 180 -820 297 -525
133 -667 178 -867 274 -444 213 -664 571 -665 1080 0 586 258 1029 760 1303
140 76 351 149 513 177 l37 6 0 319 0 320 290 0 290 0 2 -337z"/>
</g>
</svg>
